PathFileType	4	(X/Y/Z)	C:/Users/beibeiliu/ov580/test_trc\sequence.2_training_dense_left.trc
DataRate	CameraRate	NumFrames	NumMarkers	Units	OrigDataRate	OrigDataStartFrame	OrigNumFrames
120	120	10	19	mm	120	1	84
Frame#	Time	ThumbCMC			ThumbMCP			ThumbIP			ThumbTip			IndexMCP			IndexPIP			IndexTip			MiddleMCP			MiddlePIP			MiddleTip			RingMCP			RingPIP			RingTip			PinkyMCP			PinkyPIP			PinkyTip			BackHand1			BackHand2			BackHand3	
		X0	Y0	Z0	X1	Y1	Z1	X2	Y2	Z2	X3	Y3	Z3	X4	Y4	Z4	X5	Y5	Z5	X6	Y6	Z6	X7	Y7	Z7	X8	Y8	Z8	X9	Y9	Z9	X10	Y10	Z10	X11	Y11	Z11	X12	Y12	Z12	X13	Y13	Z13	X14	Y14	Z14	X15	Y15	Z15	X16	Y16	Z16	X17	Y17	Z17	X18	Y18	Z18	
0	0	-167.492	67.6113	104.323	-155.825	53.0537	81.9525	-149.368	45.2418	58.9334	-152.539	35.0363	35.3603	-181.665	71.7664	36.7559	-177.249	59.9822	15.2536	-173.971	37.2563	-4.37287	-201.794	69.3037	30.9933	-203.024	57.0682	6.71454	-203.532	34.5236	-10.6068	-219.525	65.1618	36.375	-221.459	56.1366	17.4755	-220.835	39.3275	0.565919	-240.811	58.3846	52.1915	-243.686	51.3646	37.0991	-242.48	41.0721	16.6181	-218.8	81.2194	80.432	-218.191	84.6275	111.359	-193.603	87.8516	93.0643	
1	0.00833333	-169.672	67.5507	101.257	-155.724	54.1269	79.963	-154.681	46.5443	58.9464	-152.834	35.5822	35.8421	-182.077	72.6202	34.4195	-178.901	59.4327	10.5025	-176.203	37.8657	-5.71703	-201.068	70.1873	27.4253	-202.065	60.3113	7.32038	-203.788	35.7483	-11.7524	-223.851	66.912	37.4291	-220.329	57.1851	16.0319	-219.703	37.4974	-4.44616	-237.809	60.8896	54.2756	-244.828	50.7779	31.2237	-245.977	43.307	16.0803	-220.958	81.1449	83.0282	-217.524	86.8876	107.344	-192.741	87.8325	90.2912	
2	0.0166667	-170.164	66.9657	102.832	-157.612	54.1667	82.5337	-151.854	45.7401	55.291	-152.651	37.3878	40.0378	-176.845	71.7851	30.8362	-178.931	61.0362	12.2877	-172.201	42.875	-4.48207	-203.44	71.6722	30.1981	-202.434	59.9562	6.22491	-201.306	39.0772	-12.1032	-218.686	68.4496	38.4446	-220.583	55.1797	11.9621	-221.057	38.8923	-4.1	-239.709	62.3325	52.3792	-244.763	52.6268	32.6317	-243.695	43.1866	15.9712	-221.69	82.3339	81.8883	-216.89	85.7142	106.578	-194.326	87.7298	92.7357	
3	0.025	-167.242	69.3656	96.5772	-158.85	55.851	77.9832	-153.293	47.8051	55.9664	-151.064	38.6512	39.4141	-180.06	74.0234	30.048	-175.258	62.4241	7.6549	-178.22	46.7186	-5.55015	-201.421	74.223	30.0245	-203.224	61.185	3.08053	-204.574	41.0299	-14.1067	-218.812	70.2603	34.2885	-221.89	58.2838	11.5627	-219.916	46.0637	-2.81702	-235.072	64.4562	51.3752	-240.781	56.8942	30.0704	-244.484	46.8786	13.2195	-220.051	83.2552	77.5922	-220.899	87.4961	104.131	-193.063	90.1102	88.358	
4	0.0333333	-171.355	71.8829	96.6565	-157.204	59.4907	72.1093	-149.994	51.2688	52.743	-149.179	41.9164	32.4595	-178.142	80.4401	29.6169	-177.639	70.9207	7.77121	-173.852	53.6514	-10.5626	-200.225	78.2235	20.8917	-200.798	64.3117	-2.06759	-202.303	48.1776	-18.0196	-223.657	71.6771	32.4634	-220.849	61.7719	6.60053	-221.087	45.9442	-9.33051	-240.57	64.3979	46.5282	-238.972	58.8512	27.891	-243.215	47.6979	9.52113	-221.547	86.8338	75.3547	-215.751	90.2854	99.8382	-194.392	91.7577	85.3074	
5	0.0416667	-169.833	76.1992	87.3679	-156.349	65.2685	67.2435	-151.559	58.4132	43.2647	-148.058	48.5526	24.5736	-178.161	86.6425	26.202	-180.726	74.5292	-0.355173	-173.884	59.8743	-15.5381	-204.395	81.2242	18.0193	-201.538	71.6769	-5.24549	-203.038	50.7022	-22.9025	-223.828	74.0631	28.0166	-222.716	63.979	2.3094	-220.506	50.7343	-12.2076	-237.241	65.9312	41.511	-237.263	59.5242	24.5933	-238.842	45.786	6.38215	-218.354	87.5712	74.8445	-218.037	88.8005	98.0938	-191.717	94.6208	82.5883	
6	0.05	-167.088	78.314	83.3824	-153.117	68.5181	60.9579	-150.786	61.2759	42.3103	-149.357	54.3521	20.5973	-184.745	87.3122	17.9564	-179.34	79.9614	-1.1438	-175.921	61.0181	-18.6869	-206.575	80.8682	14.2862	-201.796	73.0802	-7.32138	-197.094	48.2516	-26.8139	-219.357	73.3844	26.4258	-220.521	63.34	1.04849	-212.34	47.6449	-19.0296	-237.493	59.5453	38.0469	-236.029	51.1175	15.9241	-232.913	40.6917	0.364392	-217.661	81.7193	72.0967	-220.008	83.1889	97.0106	-197.17	93.8753	81.2131	
7	0.0583333	-167.822	78.2871	84.1698	-154.036	68.8501	59.5095	-148.635	64.6021	33.2765	-146.57	56.1778	14.3208	-187.245	88.8371	15.9493	-180.706	77.445	-8.14115	-177.125	59.9267	-21.0891	-206.718	79.9394	11.5192	-202.838	69.6542	-10.8136	-188.743	43.5749	-26.5674	-220.457	70.8967	22.1857	-221.512	58.3379	-2.45094	-211.315	43.944	-17.5035	-236.889	55.5931	32.2138	-233.432	49.1252	15.0645	-224.747	34.7271	-4.41259	-224.208	75.789	69.7838	-221.122	78.3371	92.5642	-197.547	93.7566	77.6882	
8	0.0666667	-168.676	77.156	78.3087	-156.232	67.9575	53.6376	-152.877	63.151	32.6122	-151.019	55.5678	8.84074	-188.314	89.3156	16.0831	-182.399	76.4218	-10.8222	-169.674	56.4639	-23.2866	-206.91	80.6227	12.6755	-202.963	64.7745	-15.0073	-188.363	42.02	-23.6908	-222.44	69.0538	18.3628	-219.399	57.4049	-4.78192	-202.318	40.9768	-18.1021	-235.692	53.6963	34.2269	-231.817	47.9724	12.8159	-221.016	33.3344	-4.91293	-222.098	74.5937	65.891	-221.228	74.3949	93.4355	-199.207	89.5134	76.5483	
9	0.075	-170.56	77.1369	77.761	-152.762	69.0986	51.1397	-147.791	65.0932	31.0621	-151.164	56.0773	10.538	-187.381	90.8282	12.9358	-185.188	79.6197	-9.19427	-172.547	57.7128	-22.6345	-205.598	82.6225	8.2638	-198.858	69.0886	-16.0991	-185.263	43.1375	-20.9385	-219.705	71.8831	14.8601	-219.059	57.6631	-6.15384	-200.106	39.406	-14.8531	-231.278	56.7648	32.0874	-229.341	45.7861	8.16739	-214.68	34.2672	-3.7814	-224.837	74.1251	64.7253	-221.831	75.9057	87.6023	-198.869	91.0074	75.5675	
